<?xml version="1.0" encoding="UTF-8"?>
<svg id="_圖層_1" data-name="圖層 1" xmlns="http://www.w3.org/2000/svg" viewBox="0 0 747.44 169.37">
  <defs>
    <style>
      .cls-1 {
        fill: #040000;
      }
    </style>
  </defs>
  <path class="cls-1" d="M371.93,169.37c-22.62,0-43.89-8.81-59.88-24.81-16-15.99-24.8-37.26-24.8-59.88s8.81-43.88,24.8-59.88c15.99-15.99,37.26-24.8,59.88-24.8s43.89,8.81,59.88,24.8c16,15.99,24.8,37.26,24.8,59.88s-8.8,43.89-24.8,59.88c-15.99,15.99-37.26,24.81-59.88,24.81Zm-52.9-50.07c-5.56,3.21-7.64,8.97-5.17,14.33,1.56,1.87,2.95,3.39,4.34,4.78,14.35,14.35,33.43,22.25,53.72,22.25,22.4,0,43.57-9.87,58.08-27.07,2.43-5.44,.32-11.13-5.17-14.3l-.79-.37-.46,.38-4.84,8.39c-2.02,3.48-5.39,5.4-9.49,5.4-1.87,0-3.83-.39-5.82-1.15l-30.74-10.98c.96-2.5,5.38-13.51,13.7-27.93,8.26-14.31,15.58-23.64,17.3-25.77l24.87,21.12c5.41,4.39,6.93,10.29,3.98,15.4l-5.13,8.88,.49,.3c.24,.17,.32,.23,.42,.29,2.06,1.19,4.28,1.82,6.42,1.82,3.51,0,6.57-1.63,8.62-4.59,3.04-8.38,4.54-17.02,4.54-25.81,0-36.68-26.19-68.11-62.27-74.71-6.08,.41-10.22,5.2-10.22,11.64l.08,.87,.55,.21h9.68c5.89,0,10.24,4.26,11.35,11.13l5.86,32.1c-2.7,.43-14.44,2.1-30.97,2.1s-28.33-1.68-31.03-2.1l5.86-32.09c1.1-6.88,5.45-11.15,11.34-11.15h10.26l.02-.58c.02-.28,.04-.39,.04-.5,0-6.44-4.14-11.23-10.07-11.65-36.23,6.61-62.42,38.04-62.42,74.72,0,8.76,1.47,17.34,4.36,25.48,2.12,3.21,5.23,4.91,8.82,4.91,2.14,0,4.36-.63,6.41-1.81l.7-.5-.09-.59-4.84-8.39c-2.95-5.11-1.43-11,3.97-15.39l24.88-21.13c1.72,2.13,9.04,11.46,17.3,25.77,8.33,14.42,12.74,25.43,13.7,27.93l-30.72,10.97c-2.01,.76-3.97,1.15-5.84,1.15-4.11,0-7.48-1.92-9.49-5.4l-5.13-8.88-.97,.49Zm78.45,4l6.68,2.4c.58,.22,2.12,.64,3.74,.64,2.19,0,3.79-.76,4.64-2.23l.52-.9-12.13-5.85-3.45,5.94Zm-66.68-.09l.52,.9c.84,1.46,2.45,2.23,4.63,2.23,1.62,0,3.16-.42,3.75-.65l6.69-2.4-3.43-5.95-12.17,5.87Zm54.97-12.48c-1.77,3.77-3.03,6.62-3.03,6.62l-.26,.58,10.67,3.82,3.68-6.36-10.8-5.21-.26,.55Zm-38.71,4.64l3.67,6.37,10.64-3.81-.26-.58s-1.26-2.85-3.03-6.62l-.26-.55-10.76,5.19Zm56.3-2.23l12.12,5.85,2.72-4.72-11.61-6.7-3.24,5.58Zm-77.73,1.13l2.72,4.72,12.17-5.87-3.22-5.59-11.67,6.74Zm65.71-14.8c-.98,1.82-1.98,3.81-2.96,5.79l-.26,.54,11.15,5.38,3.41-5.87-11.04-6.38-.29,.54Zm-50.12,5.8l3.39,5.88,11.1-5.35-.27-.54c-.97-1.98-1.98-3.97-2.96-5.79l-.29-.54-10.98,6.34Zm67.81-1.91l11.61,6.7,2.72-4.72-11.09-7.55-3.24,5.58Zm-88.56,1.98l2.73,4.72,11.67-6.74-3.23-5.59-11.17,7.6Zm94.24-11.77l11.09,7.55,.52-.91c1.84-3.19-1.44-6.92-2.74-7.98l-5.43-4.6-3.44,5.93Zm-94.47-1.32c-1.29,1.05-4.57,4.77-2.72,7.96l.52,.9,11.17-7.6-3.44-5.96-5.53,4.69Zm77.68-3.51c-1.23,1.84-2.45,3.71-3.54,5.46l-.32,.53,11.05,6.38,3.4-5.87-10.26-6.99-.33,.5Zm-62.53,6.45l3.39,5.87,10.98-6.34-.32-.53c-1.09-1.75-2.31-3.62-3.54-5.45l-.34-.5-10.18,6.94Zm70.16-17.38s-1.84,2.52-4.22,5.93l-.34,.49,9.96,6.79,3.69-6.35-8.71-7.38-.38,.52Zm-76.28,6.78l3.67,6.37,9.87-6.73-.34-.49c-2.38-3.41-4.21-5.93-4.21-5.93l-.38-.52-8.61,7.3Zm32.49-24.42l.6,.04c2.2,.14,4.43,.26,6.49,.33l.61,.02v-12.73h-6.79l-.92,12.34Zm12.57,.39l.62-.02c2.07-.07,4.29-.19,6.49-.34l.6-.04-.92-12.34h-6.79v12.73Zm12.55-.76l.6-.05c4.15-.36,7.25-.69,7.25-.69l.64-.06-2.02-11.17h-7.35l.89,11.97Zm-38.45-.8l.64,.06s3.1,.33,7.25,.69l.6,.05,.89-11.97h-7.35l-2.02,11.17Zm37.22-15.7h6.86l-1.28-7.08c-.26-1.63-1.83-6.34-5.54-6.34h-1.04l1,13.43Zm-11.33,0h6.45l-1-13.43h-5.45v13.43Zm-11.31,0h6.45v-13.43h-5.45l-1,13.43Zm-4.92-13.43c-4.39,0-5.55,6.4-5.56,6.47l-1.26,6.96h6.86l1-13.43h-1.04Z"/>
  <g>
    <path class="cls-1" d="M517.2,76.66c.63-1.4-.31-2.97-1.72-2.97h-21.02c-1.72,0-3.14,1.4-3.29,3.32l-6.9,74.32c-.47,3.84-3.29,6.81-6.75,6.81s-5.8-3.14-5.49-6.81l9.73-104.33V23.45c0-6.98,5.02-12.74,11.3-12.74h84.87c6.28,0,11.3,5.76,11.3,12.74v15.18c0,6.98-5.02,12.56-11.3,12.56h-81.42c-1.73,0-3.14,1.57-3.3,3.49l-.16,1.74c-.16,1.74,1.1,3.32,2.82,3.32h91.31c3.45,0,6.12,3.14,6.12,6.98s-2.67,6.98-6.12,6.98h-52.56c-1.88,0-3.45,1.22-4.23,2.97l-3.77,9.42c-.63,1.4,.31,2.97,1.72,2.79l34.04-1.92c.94,0,1.41-1.05,1.26-1.92-.94-3.32,1.26-6.81,4.39-6.81h.63c4.08,0,7.69,2.97,8.94,7.33l3.45,12.56c.94,3.66-1.41,7.33-4.86,7.33h-2.82c-2.51,0-4.55-1.74-5.18-4.36-.16-.7-.79-1.05-1.41-1.05l-49.26,2.79c-5.18,.35-8.79-5.58-6.59-10.81l6.28-15.35Zm32.95,64.03c0,1.92,1.26,3.32,2.98,3.32h36.08c3.45,0,6.28,3.14,6.28,7.15s-2.82,6.98-6.28,6.98h-90.52c-3.45,0-6.28-3.14-6.28-6.98s2.82-7.15,6.28-7.15h36.08c1.57,0,2.98-1.4,2.98-3.32v-5.93c0-1.92-1.41-3.49-2.98-3.49h-26.2c-3.45,0-6.28-3.14-6.28-6.8s2.82-6.98,6.28-6.98h27.45c.94,0,1.73-.87,1.73-2.09v-.52c0-3.67,2.82-6.81,6.12-6.81s6.28,3.14,6.28,6.81v.52c0,1.22,.78,2.09,1.73,2.09h27.61c3.45,0,6.12,3.14,6.12,6.98s-2.67,6.8-6.12,6.8h-26.36c-1.73,0-2.98,1.57-2.98,3.49v5.93Zm-53.34-116.37c-1.57,0-2.98,1.4-2.98,3.32v6.81c0,1.74,1.41,3.31,2.98,3.31h77.34c1.73,0,3.14-1.57,3.14-3.31v-6.81c0-1.92-1.41-3.32-3.14-3.32h-77.34Z"/>
    <path class="cls-1" d="M650.49,113.3c-1.57,0-2.67,1.4-2.82,2.97,0,1.57,1.1,2.96,2.67,2.96h16.63c6.28,0,11.14,5.76,10.82,12.74l-1.1,19.36c-.16,3.32-2.67,5.93-5.65,5.93s-5.33-2.79-5.18-5.93l.94-16.57c0-1.74-1.26-3.32-2.82-3.32h-16.79c-1.72,0-3.45,1.22-4.08,3.14l-4.55,12.74c-1.41,3.66-4.55,6.11-8.16,6.11-2.82,0-4.71-3.14-3.61-6.11l8.79-24.6c.78-1.92,1.1-4.01,1.26-6.11,.16-1.74-1.1-3.32-2.67-3.32h-16c-2.98,0-5.33-2.79-5.33-6.11s2.35-6.11,5.33-6.11h22.59c1.26,0,2.04-.87,2.04-2.09v-2.44c0-3.32,2.51-6.11,5.49-6.11,3.14,0,5.49,2.79,5.49,6.11v2.44c0,1.22,.94,2.09,2.04,2.09h25.26c3.14,0,5.49,2.79,5.49,6.11s-2.35,6.11-5.49,6.11h-30.59Zm-10.98-70.66c1.57,0,2.98-1.57,2.98-3.49s-1.41-3.49-2.98-3.49h-20.86c-2.67,0-4.86-2.44-4.86-5.41s2.2-5.41,4.86-5.41h21.02c1.57,0,2.82-1.4,2.82-2.97v-6.28c0-2.97,2.2-5.41,4.86-5.41s4.86,2.44,4.86,5.41v6.28c0,1.57,1.26,2.97,2.82,2.97h21.18c2.82,0,4.86,2.44,4.86,5.41s-2.04,5.41-4.86,5.41h-20.86c-1.73,0-3.14,1.57-3.14,3.49s1.41,3.49,3.14,3.49h12.08c6.28,0,11.3,5.58,11.3,12.56v19.89c0,7.15-5.02,12.74-11.3,12.74h-39.69c-6.28,0-11.45-5.58-11.45-12.74v-19.89c0-6.98,5.18-12.56,11.45-12.56h11.76Zm2.98,13.78c0-1.74-1.26-3.14-2.82-3.14h-10.98c-1.57,0-2.98,1.4-2.98,3.14s1.41,3.32,2.98,3.32h10.98c1.57,0,2.82-1.57,2.82-3.32Zm-13.81,14.31c-1.57,0-2.98,1.39-2.98,3.14,0,1.92,1.41,3.32,2.98,3.32h10.98c1.57,0,2.82-1.4,2.82-3.32,0-1.75-1.26-3.14-2.82-3.14h-10.98Zm40.48-14.31c0-1.74-1.26-3.14-2.82-3.14h-11.14c-1.57,0-2.98,1.4-2.98,3.14s1.41,3.32,2.98,3.32h11.14c1.57,0,2.82-1.57,2.82-3.32Zm-16.95,17.45c0,1.92,1.41,3.32,2.98,3.32h11.14c1.57,0,2.82-1.4,2.82-3.32,0-1.75-1.26-3.14-2.82-3.14h-11.14c-1.57,0-2.98,1.39-2.98,3.14Zm20.4-58.09c1.1,2.62-.63,5.75-3.29,5.75h-.63c-3.45,0-6.59-2.27-8-5.75-1.1-2.62,.63-5.76,3.14-5.76h.78c3.45,0,6.59,2.27,8,5.76Zm72.95,132.94c1.41,3.32-.63,6.98-3.92,6.98-4.24,0-8.16-2.79-9.88-6.98l-12.08-28.61c-.47-1.22-2.04-1.22-2.67,0l-13.49,29.49c-1.88,4.36-5.96,7.15-10.35,7.15-3.3,0-5.49-4.01-3.92-7.15l21.02-45.88c.78-1.75,.78-4.01,0-5.93l-11.61-27.04c-.31-.7-1.41-.52-1.57,.17l-.47,2.62c-.63,4.01-3.92,6.97-7.69,6.97-3.29,0-5.8-3.49-5.18-7.15l9.26-53.56c.78-4.01,4.08-7.15,7.84-7.15,3.29,0,5.96,3.49,5.18,7.15l-1.57,9.25c-.31,1.74,.94,3.32,2.51,3.32h34.2c3.45,0,6.28,3.14,6.28,7.15v1.04c0,3.32-2.35,5.93-5.33,5.93-.79,0-1.57,.7-1.88,1.57l-13.96,48.5c-.63,2.1-.47,4.36,.31,6.28l18.98,45.89Zm-29.65-70.48c.47,1.22,1.88,1.05,2.2-.17l8.16-28.27c.47-1.57-.63-3.31-2.2-3.31h-18.35c-1.41,0-2.35,1.74-1.73,3.14l11.92,28.61Z"/>
  </g>
  <g>
    <path class="cls-1" d="M110.61,59.39c-2.82,0-5.02-2.79-4.39-5.93,.16-.88-.47-1.57-1.26-1.57H20.24c-1.73,0-2.98,1.4-2.98,3.32v8.55l-5.02,88.63c-.16,3.84-2.98,6.8-6.43,6.8S-.15,156.04,0,152.37L4.87,63.4v-13.08c0-6.98,5.18-12.56,11.45-12.56h30.28c1.72,0,3.14-1.57,3.14-3.49V16.65c0-3.84,2.82-6.81,6.28-6.81h.31c3.14,0,5.8,2.79,5.8,6.45,0,1.05,.79,1.75,1.57,1.75h44.24c3.29,0,6.12,3.14,6.12,6.8s-2.82,6.81-6.12,6.81h-42.99c-1.57,0-2.82,1.39-2.82,2.96,0,1.74,1.26,3.14,2.82,3.14h46.44c5.18,0,9.1,5.23,8.16,10.82l-.63,3.84c-.63,4.01-3.77,6.98-7.53,6.98h-.78Zm-53.5,38.9c-6.28,0-11.3-5.75-11.3-12.73v-2.62c0-1.92-1.41-3.32-3.14-3.14l-10.36,.7c-3.14,.18-5.96-2.62-5.96-6.1,0-3.66,2.67-6.81,5.96-6.98l11.61-.88c.94,0,1.88-1.04,1.88-2.27v-1.04c0-3.66,2.67-6.63,5.96-6.63s5.96,2.97,5.96,6.63v.35c0,1.05,.78,1.92,1.72,1.74l29.81-1.92c3.29-.17,5.96,2.62,5.96,6.11,0,3.84-2.67,6.81-5.96,6.98l-28.87,2.1c-1.41,.17-2.67,1.57-2.67,3.32,0,1.57,1.26,2.96,2.67,2.96h43.93c3.45,0,6.12,2.97,6.12,6.63s-2.67,6.8-6.12,6.8H57.11Zm-19.92,60.89c-3.45,0-5.96-3.49-5.18-7.15l7.53-37.86c.79-4.19,4.24-7.15,8-7.15,3.45,0,5.96,3.31,5.18,7.15l-7.37,37.86c-.94,4.19-4.24,7.15-8.16,7.15Zm47.85-17.27c0,1.92,1.41,3.49,3.14,3.49h29.02c3.61,0,6.43,3.14,6.43,6.98s-2.82,7.15-6.43,7.15h-33.42c-6.28,0-11.3-5.76-11.3-12.74v-32.8c0-3.84,2.82-6.97,6.28-6.97s6.28,3.14,6.28,6.97v27.91Z"/>
    <path class="cls-1" d="M149.06,54.5c-2.82,2.1-6.59,.52-7.53-3.14l-3.45-14.48c-.16-.52-.63-.87-1.1-.7-1.41,.35-2.98-.87-2.98-2.62v-3.84c0-4.19,2.67-8.03,6.43-8.9l37.18-9.95c3.14-.87,6.28,1.74,6.28,5.41,0,4.19-2.67,7.85-6.28,8.9l-3.61,1.22c-.94,.17-1.41,1.22-1.26,2.27,.94,3.84-.47,8.03-3.61,10.47l-.47,.35c-2.67,2.09-6.43,.52-7.22-2.97l-.94-3.66c-.31-1.57-1.72-2.44-3.29-2.1l-3.61,1.05c-1.57,.35-2.67,2.27-2.2,4.01l1.57,6.98c1.1,4.36-.47,9.07-3.92,11.69Zm37.02-10.47c0,5.23-2.35,10.29-6.28,13.26l-.78,.52c-1.1,.7-1.57,2.27-1.1,3.66l8.31,23.55c2.82,7.67,4.08,16.05,3.77,24.42l-1.1,33.15c-.31,6.98-5.49,12.56-11.92,12.56h-8.79c-3.45,0-6.28-2.97-6.28-6.8s2.82-6.98,6.28-6.98h5.02c1.73,0,3.14-1.57,3.14-3.49l.47-19.02c.16-1.22-1.26-1.92-1.88-1.05l-13.02,14.83c-3.92,4.54-9.41,7.15-15.06,7.15-3.14,0-4.86-4.54-2.67-7.15l29.96-34.37c1.26-1.4,1.73-3.66,1.1-5.58l-.47-1.05c-.47-1.57-2.2-1.92-3.14-.7l-11.3,12.56c-4.08,4.54-9.57,7.15-15.22,7.15-3.14,0-4.86-4.54-2.67-6.98l24-26.87c1.26-1.57,1.72-3.66,1.1-5.58l-.16-.52c-.47-1.57-2.35-2.27-3.61-1.22l-13.81,10.47c-2.67,1.92-6.43-.18-6.43-3.84,0-5.23,2.35-10.12,6.43-13.08l29.81-22.68c2.67-2.1,6.28,.17,6.28,3.66Zm29.18-16.22c-.31,1.74,.78,3.32,2.35,3.32h40.79c6.28,0,11.3,5.75,10.98,12.73l-3.45,103.28c0,4.19-3.14,7.5-7.06,7.5s-6.75-3.49-6.59-7.5l3.3-97.52c0-1.74-1.26-3.32-2.98-3.32h-37.81c-1.88,0-3.29,1.4-3.61,3.32l-2.35,13.26c-.78,4.36-4.39,7.5-8.31,7.5-3.61,0-6.28-3.66-5.65-7.5l7.37-40.82c.78-4.36,4.39-7.5,8.31-7.5,3.61,0,6.28,3.49,5.65,7.5l-.94,5.76Zm2.2,55.48c-1.41-3.84,.94-7.67,4.55-7.67,4.55,0,8.63,2.97,10.2,7.67l6.59,18.15c1.26,3.66-1.1,7.5-4.71,7.5-4.39,0-8.47-2.96-10.04-7.5l-6.59-18.15Z"/>
  </g>
</svg>